<?xml version="1.0" encoding="UTF-8" standalone="no"?>
<svg
   xmlns:dc="http://purl.org/dc/elements/1.1/"
   xmlns:cc="http://creativecommons.org/ns#"
   xmlns:rdf="http://www.w3.org/1999/02/22-rdf-syntax-ns#"
   xmlns:svg="http://www.w3.org/2000/svg"
   xmlns="http://www.w3.org/2000/svg"
   xmlns:sodipodi="http://sodipodi.sourceforge.net/DTD/sodipodi-0.dtd"
   xmlns:inkscape="http://www.inkscape.org/namespaces/inkscape"
   height="128"
   width="128"
   viewBox="0 0 128 128"
   version="1.1"
   id="svg6"
   sodipodi:docname="favicon-touch.svg"
   inkscape:version="0.92.2 (5c3e80d, 2017-08-06)">
  <metadata
     id="metadata12">
    <rdf:RDF>
      <cc:Work
         rdf:about="">
        <dc:format>image/svg+xml</dc:format>
        <dc:type
           rdf:resource="http://purl.org/dc/dcmitype/StillImage" />
      </cc:Work>
    </rdf:RDF>
  </metadata>
  <defs
     id="defs10" />
  <sodipodi:namedview
     pagecolor="#ffffff"
     bordercolor="#666666"
     borderopacity="1"
     objecttolerance="10"
     gridtolerance="10"
     guidetolerance="10"
     inkscape:pageopacity="0"
     inkscape:pageshadow="2"
     inkscape:window-width="2560"
     inkscape:window-height="1369"
     id="namedview8"
     showgrid="false"
     inkscape:zoom="1.84375"
     inkscape:cx="63.457627"
     inkscape:cy="64"
     inkscape:window-x="0"
     inkscape:window-y="23"
     inkscape:window-maximized="1"
     inkscape:current-layer="svg6" />
  <rect
     rx="20"
     ry="20"
     height="128"
     width="128"
     fill="#745bca"
     id="rect2"
     style="fill:#ff8926;fill-opacity:1"
     inkscape:export-xdpi="96"
     inkscape:export-ydpi="96" />
  <g
     id="g127"
     transform="matrix(1.1952542,0,0,1.1952542,191.43449,169.88379)"
     inkscape:export-xdpi="96"
     inkscape:export-ydpi="96">
    <path
       inkscape:connector-curvature="0"
       id="path3803"
       d="m -106.30509,-122.84236 a 32.143,32.143 0 0 0 -31.927,28.585 17.857,17.857 0 0 0 -0.216,-0.014 17.857,17.857 0 0 0 -17.857,17.859 17.857,17.857 0 0 0 17.857,17.857 h 60.713 a 21.43,21.43 0 0 0 21.43,-21.428 21.43,21.43 0 0 0 -19.71,-21.344 32.143,32.143 0 0 0 -30.29,-21.513 z"
       style="fill:#ffffff;fill-opacity:1" />
    <g
       style="fill:#fb8b00;fill-opacity:1"
       transform="matrix(0.1914447,0,0,0.1914447,-77.29274,-66.959219)"
       id="g68">
      <path
         style="fill:#fb8b00;fill-opacity:1"
         d="m -146.84493,-223.33963 c -32.14481,0.1635 -63.58571,15.8067 -82.71871,44.4063 -11.7909,17.6247 -17.2038,37.6047 -16.8438,57.31252 h 199.96881 c 0.5379,-32.82452 -15.0596,-65.23192 -44.375,-84.84382 l -3.2813,-2.0937 c -16.4506,-10.0985 -34.7175,-14.873 -52.75,-14.7813 z m -40.53121,56.4688 c 2.3921,-0.068 4.8148,0.5336 7,1.875 l 0.4375,0.25 c 5.84371,3.9094 7.40941,11.8125 3.5,17.6562 -3.9095,5.8438 -11.8125,7.4407 -17.6563,3.5313 -5.8438,-3.9095 -7.4095,-11.8438 -3.5,-17.6875 2.3762,-3.5519 6.2318,-5.5111 10.2188,-5.625 z m 76.37501,0 c 2.3921,-0.068 4.846,0.5336 7.0312,1.875 l 0.4063,0.25 c 5.8437,3.9094 7.4094,11.8125 3.5,17.6562 -3.9095,5.8438 -11.8125,7.4407 -17.6563,3.5313 -5.8438,-3.9095 -7.4094,-11.8438 -3.5,-17.6875 2.3762,-3.5519 6.2318,-5.5111 10.2188,-5.625 z"
         id="path3236"
         inkscape:connector-curvature="0"
         inkscape:export-filename="/home/cho2/Gambar/ridon.png"
         inkscape:export-xdpi="90"
         inkscape:export-ydpi="90" />
      <path
         inkscape:connector-curvature="0"
         style="fill:#fb8b00;fill-opacity:1;stroke:#ffffff;stroke-width:2;stroke-miterlimit:4;stroke-dasharray:none"
         d="m -247.76714,-73.80961 c 1.001,-0.9211 5.7577,-4.7986 10.5702,-8.6166 4.8124,-3.8181 13.2585,-13.3761 18.769,-21.2402 22.1144,-31.5594 42.8789,-40.77782 64.54441,-28.6542 l 6.5164,3.6464 6.1656,-3.7494 c 10.5312,-6.4046 19.9647,-6.76 32.1008,-1.2093 12.9619,5.9284 18.1533,10.748 30.4811,28.2981 9.0287,12.8536 17.9318,22.1626 28.3556,29.6483 4.4425,3.1902 4.1662,3.2344 -13.6673,2.1842 -40.4357,-2.3812 -56.3892,-7.294 -71.6326,-22.0583 -5.5502,-5.3758 -11.2826,-9.7742 -12.7386,-9.7742 -1.4559,0 -5.4321,3.2534 -8.8356,7.2298 -7.9513,9.2892 -28.55011,19.4296 -44.21511,21.7661 -18.7976,2.8038 -48.4696,4.4208 -46.4139,2.5293 z"
         id="path3252"
         inkscape:export-xdpi="90"
         inkscape:export-ydpi="90"
         inkscape:export-filename="/home/cho2/Gambar/ridon.png" />
    </g>
  </g>
</svg>
