<?xml version="1.0" encoding="UTF-8" standalone="no"?>
<svg
   xmlns:dc="http://purl.org/dc/elements/1.1/"
   xmlns:cc="http://creativecommons.org/ns#"
   xmlns:rdf="http://www.w3.org/1999/02/22-rdf-syntax-ns#"
   xmlns:svg="http://www.w3.org/2000/svg"
   xmlns="http://www.w3.org/2000/svg"
   xmlns:sodipodi="http://sodipodi.sourceforge.net/DTD/sodipodi-0.dtd"
   xmlns:inkscape="http://www.inkscape.org/namespaces/inkscape"
   height="120"
   viewBox="0 0 252.00001 119.99799"
   width="252"
   version="1.1"
   id="svg4"
   sodipodi:docname="logo.svg"
   inkscape:version="0.92.2 (5c3e80d, 2017-08-06)"
   inkscape:export-filename="/home/haris/Gambar/ridon/core/img/logo.png"
   inkscape:export-xdpi="110.04766"
   inkscape:export-ydpi="110.04766">
  <metadata
     id="metadata10">
    <rdf:RDF>
      <cc:Work
         rdf:about="">
        <dc:format>image/svg+xml</dc:format>
        <dc:type
           rdf:resource="http://purl.org/dc/dcmitype/StillImage" />
      </cc:Work>
    </rdf:RDF>
  </metadata>
  <defs
     id="defs8" />
  <sodipodi:namedview
     pagecolor="#ffffff"
     bordercolor="#666666"
     borderopacity="1"
     objecttolerance="10"
     gridtolerance="10"
     guidetolerance="10"
     inkscape:pageopacity="0"
     inkscape:pageshadow="2"
     inkscape:window-width="2560"
     inkscape:window-height="1369"
     id="namedview6"
     showgrid="false"
     inkscape:zoom="7.3628896"
     inkscape:cx="69.503711"
     inkscape:cy="74.412038"
     inkscape:window-x="0"
     inkscape:window-y="23"
     inkscape:window-maximized="1"
     inkscape:current-layer="svg4" />
  <path
     style="fill:#ffffff;fill-opacity:1"
     d="m 126.68909,10.41 a 32.143,32.143 0 0 0 -31.927,28.585 17.857,17.857 0 0 0 -0.216,-0.014 17.857,17.857 0 0 0 -17.857,17.859 17.857,17.857 0 0 0 17.857,17.857 h 60.713 a 21.43,21.43 0 0 0 21.43,-21.428 21.43,21.43 0 0 0 -19.71,-21.344 32.143,32.143 0 0 0 -30.29,-21.513 z"
     id="path3803"
     inkscape:connector-curvature="0" />
  <g
     id="g68"
     transform="matrix(0.1914447,0,0,0.1914447,155.70144,66.293141)"
     style="fill:#fb8b00;fill-opacity:1">
    <path
       inkscape:export-ydpi="90"
       inkscape:export-xdpi="90"
       inkscape:export-filename="/home/cho2/Gambar/ridon.png"
       inkscape:connector-curvature="0"
       id="path3236"
       d="m -146.84493,-223.33963 c -32.14481,0.1635 -63.58571,15.8067 -82.71871,44.4063 -11.7909,17.6247 -17.2038,37.6047 -16.8438,57.31252 h 199.96881 c 0.5379,-32.82452 -15.0596,-65.23192 -44.375,-84.84382 l -3.2813,-2.0937 c -16.4506,-10.0985 -34.7175,-14.873 -52.75,-14.7813 z m -40.53121,56.4688 c 2.3921,-0.068 4.8148,0.5336 7,1.875 l 0.4375,0.25 c 5.84371,3.9094 7.40941,11.8125 3.5,17.6562 -3.9095,5.8438 -11.8125,7.4407 -17.6563,3.5313 -5.8438,-3.9095 -7.4095,-11.8438 -3.5,-17.6875 2.3762,-3.5519 6.2318,-5.5111 10.2188,-5.625 z m 76.37501,0 c 2.3921,-0.068 4.846,0.5336 7.0312,1.875 l 0.4063,0.25 c 5.8437,3.9094 7.4094,11.8125 3.5,17.6562 -3.9095,5.8438 -11.8125,7.4407 -17.6563,3.5313 -5.8438,-3.9095 -7.4094,-11.8438 -3.5,-17.6875 2.3762,-3.5519 6.2318,-5.5111 10.2188,-5.625 z"
       style="fill:#fb8b00;fill-opacity:1" />
    <path
       inkscape:export-filename="/home/cho2/Gambar/ridon.png"
       inkscape:export-ydpi="90"
       inkscape:export-xdpi="90"
       id="path3252"
       d="m -247.76714,-73.80961 c 1.001,-0.9211 5.7577,-4.7986 10.5702,-8.6166 4.8124,-3.8181 13.2585,-13.3761 18.769,-21.2402 22.1144,-31.5594 42.8789,-40.77782 64.54441,-28.6542 l 6.5164,3.6464 6.1656,-3.7494 c 10.5312,-6.4046 19.9647,-6.76 32.1008,-1.2093 12.9619,5.9284 18.1533,10.748 30.4811,28.2981 9.0287,12.8536 17.9318,22.1626 28.3556,29.6483 4.4425,3.1902 4.1662,3.2344 -13.6673,2.1842 -40.4357,-2.3812 -56.3892,-7.294 -71.6326,-22.0583 -5.5502,-5.3758 -11.2826,-9.7742 -12.7386,-9.7742 -1.4559,0 -5.4321,3.2534 -8.8356,7.2298 -7.9513,9.2892 -28.55011,19.4296 -44.21511,21.7661 -18.7976,2.8038 -48.4696,4.4208 -46.4139,2.5293 z"
       style="fill:#fb8b00;stroke:#ffffff;stroke-width:2;stroke-miterlimit:4;stroke-dasharray:none;fill-opacity:1"
       inkscape:connector-curvature="0" />
  </g>
  <g
     id="text3835"
     style="font-style:normal;font-variant:normal;font-weight:normal;font-stretch:normal;font-size:40px;line-height:1.25;font-family:Comfortaa;-inkscape-font-specification:'Comfortaa, Normal';font-variant-ligatures:normal;font-variant-caps:normal;font-variant-numeric:normal;font-feature-settings:normal;text-align:start;letter-spacing:0px;word-spacing:0px;writing-mode:lr-tb;text-anchor:start;fill:#ffffff;fill-opacity:1;stroke:none"
     aria-label="Cloud"
     transform="translate(76.829271,-136.7561)">
    <path
       inkscape:connector-curvature="0"
       id="path70"
       d="m 67.97903,251.83387 q -4.24,0 -7.8,-2.16 -3.56,-2.16 -5.68,-5.84 -2.08,-3.68 -2.08,-8.04 0,-4.32 2.08,-8 2.08,-3.68 5.64,-5.84 3.56,-2.16 7.84,-2.16 2.88,0 5.24,0.84 2.36,0.84 4.56,2.68 0.44,0.32 0.44,0.92 0,0.32 -0.16,0.6 -0.16,0.24 -0.44,0.36 -0.08,0.28 -0.36,0.44 -0.28,0.16 -0.6,0.16 -0.6,0 -1,-0.36 -1.56,-1.4 -3.4,-2.04 -1.84,-0.64 -4.28,-0.64 -3.36,0 -6.24,1.8 -2.88,1.76 -4.6,4.76 -1.68,3 -1.68,6.48 0,3.56 1.68,6.56 1.68,3 4.56,4.76 2.88,1.76 6.28,1.76 4.36,0 7.88,-2.8 0.44,-0.32 0.88,-0.32 0.6,0 1.04,0.44 0.44,0.4 0.44,1.08 0,0.64 -0.44,1.12 -3.76,3.44 -9.8,3.44 z"
       style="fill:#ffffff" />
    <path
       inkscape:connector-curvature="0"
       id="path72"
       d="m 89.118405,251.43387 q -2.44,0 -4,-1.92 -1.52,-1.96 -1.52,-5 v -22.8 q 0,-0.68 0.44,-1.08 0.44,-0.44 1.08,-0.44 0.68,0 1.08,0.44 0.44,0.4 0.44,1.08 v 22.8 q 0,1.72 0.68,2.8 0.72,1.08 1.8,1.08 h 1 q 0.6,0 0.96,0.44 0.36,0.4 0.36,1.08 0,0.68 -0.52,1.12 -0.48,0.4 -1.28,0.4 z"
       style="fill:#ffffff" />
    <path
       inkscape:connector-curvature="0"
       id="path74"
       d="m 104.90528,251.63387 q -3.16,0 -5.72,-1.44 -2.52,-1.44 -3.96,-3.96 -1.44,-2.56 -1.44,-5.72 0,-3.16 1.44,-5.72 1.44,-2.56 3.96,-4 2.56,-1.44 5.72,-1.44 3.16,0 5.68,1.44 2.52,1.44 3.96,4 1.48,2.56 1.48,5.72 0,3.16 -1.44,5.72 -1.44,2.52 -4,3.96 -2.52,1.44 -5.68,1.44 z m 0,-2.8 q 2.32,0 4.16,-1.08 1.84,-1.08 2.88,-2.96 1.04,-1.92 1.04,-4.28 0,-2.4 -1.04,-4.28 -1.04,-1.92 -2.88,-3 -1.84,-1.08 -4.16,-1.08 -2.28,0 -4.16,1.08 -1.84,1.08 -2.92,3 -1.04,1.88 -1.04,4.28 0,2.36 1.04,4.28 1.08,1.88 2.92,2.96 1.88,1.08 4.16,1.08 z"
       style="fill:#ffffff" />
    <path
       inkscape:connector-curvature="0"
       id="path76"
       d="m 140.37465,229.55387 q 0.68,0 1.12,0.44 0.44,0.4 0.44,1.08 v 18.8 q 0,0.68 -0.44,1.12 -0.44,0.44 -1.12,0.44 -0.68,0 -1.12,-0.44 -0.4,-0.44 -0.4,-1.12 v -1.36 q -1.32,1.48 -3.2,2.32 -1.88,0.84 -4.08,0.84 -2.84,0 -5.12,-1.2 -2.24,-1.2 -3.52,-3.48 -1.28,-2.32 -1.28,-5.52 v -10.4 q 0,-0.64 0.44,-1.08 0.44,-0.44 1.08,-0.44 0.68,0 1.12,0.44 0.44,0.44 0.44,1.08 v 10.4 q 0,3.56 1.96,5.44 2,1.84 5.2,1.84 1.96,0 3.52,-0.76 1.6,-0.76 2.52,-2.08 0.92,-1.36 0.92,-3 v -11.84 q 0,-0.68 0.4,-1.08 0.44,-0.44 1.12,-0.44 z"
       style="fill:#ffffff" />
    <path
       inkscape:connector-curvature="0"
       id="path78"
       d="m 170.20403,230.71387 q 0.04,0.12 0.04,0.36 v 9.4 q 0,3.12 -1.48,5.68 -1.44,2.56 -4,4.04 -2.52,1.44 -5.64,1.44 -3.12,0 -5.68,-1.44 -2.52,-1.48 -4,-4.04 -1.44,-2.56 -1.44,-5.68 0,-3.12 1.4,-5.64 1.44,-2.56 3.88,-4 2.48,-1.48 5.52,-1.48 2.6,0 4.76,1.12 2.16,1.08 3.56,3 v -11.72 q 0,-0.68 0.44,-1.12 0.44,-0.44 1.12,-0.44 0.68,0 1.08,0.44 0.44,0.44 0.44,1.12 z m -11.08,18.12 q 2.28,0 4.12,-1.08 1.84,-1.12 2.88,-3 1.08,-1.92 1.08,-4.28 0,-0.68 -0.04,-1 -0.04,-0.08 -0.04,-0.2 -0.4,-3.12 -2.64,-5.12 -2.2,-2 -5.36,-2 -2.28,0 -4.16,1.08 -1.84,1.08 -2.92,3 -1.04,1.88 -1.04,4.24 0,2.36 1.04,4.28 1.08,1.88 2.92,3 1.88,1.08 4.16,1.08 z"
       style="fill:#ffffff" />
  </g>
  <g
     id="text43"
     style="font-style:normal;font-variant:normal;font-weight:bold;font-stretch:normal;font-size:40px;line-height:1.25;font-family:Comfortaa;-inkscape-font-specification:'Comfortaa, Bold';font-variant-ligatures:normal;font-variant-caps:normal;font-variant-numeric:normal;font-feature-settings:normal;text-align:start;letter-spacing:0px;word-spacing:0px;writing-mode:lr-tb;text-anchor:start;fill:#ffffff;fill-opacity:1;stroke:none"
     aria-label="Ridon"
     transform="translate(76.829271,-136.7561)">
    <path
       inkscape:connector-curvature="0"
       id="path81"
       d="m -50.244391,248.15387 q 0.4,0.64 0.4,1.32 0,0.8 -0.56,1.36 -0.52,0.52 -1.44,0.52 -1.16,0 -1.8,-1 l -6.88,-11.04 h -0.72 -5.12 v 9.96 q 0,0.88 -0.6,1.48 -0.56,0.6 -1.48,0.6 -0.88,0 -1.48,-0.6 -0.6,-0.6 -0.6,-1.48 v -27.08 q 0,-0.92 0.6,-1.48 0.6,-0.6 1.48,-0.6 h 7.2 q 2.96,0 5.28,1.24 2.36,1.24 3.64,3.48 1.32,2.24 1.32,5.12 0,2.84 -1.44,5.04 -1.44,2.2 -3.92,3.32 z m -11,-12.68 q 2.72,0 4.48,-1.52 1.76,-1.56 1.76,-4 0,-2.64 -1.76,-4.32 -1.76,-1.68 -4.48,-1.68 h -5.12 v 11.52 z"
       style="fill:#ffffff" />
    <path
       inkscape:connector-curvature="0"
       id="path83"
       d="m -43.171891,251.35387 q -0.88,0 -1.48,-0.56 -0.56,-0.6 -0.56,-1.48 v -17.8 q 0,-0.92 0.56,-1.48 0.6,-0.56 1.48,-0.56 0.92,0 1.48,0.56 0.56,0.56 0.56,1.48 v 17.8 q 0,0.88 -0.56,1.48 -0.56,0.56 -1.48,0.56 z m 0,-25.44 q -1.08,0 -1.88,-0.76 -0.76,-0.8 -0.76,-1.88 0,-1.08 0.76,-1.84 0.8,-0.8 1.88,-0.8 1.08,0 1.84,0.8 0.8,0.76 0.8,1.84 0,1.08 -0.8,1.88 -0.76,0.76 -1.84,0.76 z"
       style="fill:#ffffff" />
    <path
       inkscape:connector-curvature="0"
       id="path85"
       d="m -14.622516,220.11387 q 0.92,0 1.48,0.56 0.56,0.56 0.56,1.48 v 18.24 q 0,3.12 -1.48,5.68 -1.44,2.52 -3.96,4 -2.48,1.44 -5.56,1.44 -3.08,0 -5.64,-1.44 -2.52,-1.48 -3.96,-4 -1.44,-2.56 -1.44,-5.68 0,-3.12 1.32,-5.64 1.36,-2.56 3.68,-4 2.36,-1.44 5.24,-1.44 2.32,0 4.32,0.96 2,0.96 3.4,2.68 v -10.8 q 0,-0.92 0.56,-1.48 0.6,-0.56 1.48,-0.56 z m -8.96,27.8 q 2,0 3.6,-0.96 1.64,-1 2.56,-2.72 0.92,-1.72 0.92,-3.84 0,-2.12 -0.92,-3.8 -0.92,-1.72 -2.56,-2.68 -1.6,-1 -3.6,-1 -2,0 -3.64,1 -1.6,0.96 -2.56,2.68 -0.92,1.68 -0.92,3.8 0,2.12 0.92,3.84 0.96,1.72 2.56,2.72 1.64,0.96 3.64,0.96 z"
       style="fill:#ffffff" />
    <path
       inkscape:connector-curvature="0"
       id="path87"
       d="m 4.5424838,251.51387 q -3.2,0 -5.72,-1.4 -2.52,-1.44 -3.92,-3.96 -1.4,-2.52 -1.4,-5.72 0,-3.24 1.4,-5.76 1.4,-2.52 3.92,-3.92 2.52,-1.44 5.72,-1.44 3.16,0 5.6400002,1.44 2.52,1.4 3.92,3.92 1.44,2.52 1.44,5.76 0,3.2 -1.4,5.72 -1.4,2.52 -3.92,3.96 -2.4800002,1.4 -5.6800002,1.4 z m 0,-3.6 q 2.04,0 3.64,-0.96 1.64,-0.96 2.5200002,-2.64 0.92,-1.72 0.92,-3.88 0,-2.16 -0.92,-3.88 -0.8800002,-1.72 -2.5200002,-2.68 -1.6,-0.96 -3.64,-0.96 -2.04,0 -3.67999997,0.96 -1.6,0.96 -2.52000003,2.68 -0.92,1.72 -0.92,3.88 0,2.16 0.92,3.88 0.92000003,1.68 2.52000003,2.64 1.63999997,0.96 3.67999997,0.96 z"
       style="fill:#ffffff" />
    <path
       inkscape:connector-curvature="0"
       id="path89"
       d="m 32.533734,229.27387 q 2.76,0 4.96,1.2 2.2,1.2 3.44,3.52 1.24,2.28 1.24,5.52 v 9.84 q 0,0.88 -0.6,1.48 -0.56,0.56 -1.44,0.56 -0.88,0 -1.48,-0.56 -0.56,-0.6 -0.56,-1.48 v -9.84 q 0,-3.24 -1.76,-4.88 -1.72,-1.68 -4.6,-1.68 -1.68,0 -3.08,0.68 -1.36,0.68 -2.16,1.84 -0.76,1.16 -0.76,2.6 v 11.28 q 0,0.88 -0.56,1.48 -0.56,0.56 -1.48,0.56 -0.88,0 -1.48,-0.56 -0.56,-0.6 -0.56,-1.48 v -17.84 q 0,-0.92 0.56,-1.48 0.6,-0.56 1.48,-0.56 0.92,0 1.48,0.56 0.56,0.56 0.56,1.48 v 0.44 q 1.28,-1.28 3.04,-1.96 1.76,-0.72 3.76,-0.72 z"
       style="fill:#ffffff" />
  </g>
</svg>
